<?xml version="1.0" encoding="utf-8"?>
<!-- Generator: Adobe Illustrator 24.0.0, SVG Export Plug-In . SVG Version: 6.00 Build 0)  -->
<svg version="1.1" id="Layer_1" xmlns="http://www.w3.org/2000/svg" xmlns:xlink="http://www.w3.org/1999/xlink" x="0px" y="0px"
	 viewBox="0 0 600 600" enable-background="new 0 0 600 600" xml:space="preserve">
<g>
	<path d="M506.8,295.9c-2.4,3.6-6.8,5.9-13.3,6.8c-1.1,1.9-4.9,7.8-10.7,9.9c-0.9,2.1-4.7,9.7-13.3,17.4
		c-9.1,8.1-25.6,17.8-52.4,17.8c-2.7,0-5.4-0.1-8.2-0.3c-0.1,7-0.7,40-2.7,59.6c0,1.8-0.4,29.2-25.3,33.3l1.7,91
		c4,1.8,20.6,10.5,14.9,30.7c-0.1,0.5-0.6,0.9-1.1,0.9c-0.1,0-4.6,0.5-11.3,1c0,0,0,0,0,0h0c-5.4,0.4-12.3,0.7-19.5,0.7
		c-0.4,0-0.9,0-1.3,0c0,0,0,0,0,0c0,0,0,0-0.1,0c-14.1-0.1-25.3-1.4-33.2-4c-0.5-0.2-0.9-0.6-0.9-1.2l-3.3-112.9h-27.9v81.6
		c0.1,0.5,0.6,4.2,4,5.3c1.2,0.3,16.2,4.8,13.7,28.6c-0.1,0.6-0.5,1-1.1,1.1c-0.1,0-5.1,0.7-12.6,1.3c0,0,0,0,0,0c0,0,0,0,0,0
		c-5.5,0.4-12.3,0.8-19.6,0.8c-1.3,0-2.5,0-3.8,0c0,0,0,0,0,0c0,0,0,0,0,0c-10-0.2-18.9-1.1-26.5-2.6c-0.3-0.1-6.8-1.6-6.9-11.5
		l-0.3-89.3c-0.8,0.2-1.7,0.3-2.6,0.3c-1.1,0-2.3-0.1-3.6-0.5c0,0-0.1,0-0.3-0.1c0,0-0.1,0-0.1,0c-0.1,0-0.2-0.1-0.4-0.1
		c-1.7-0.6-3.2-1.5-4.5-2.8c-6.5,5.8-44.3,38.1-91.1,42.2c-0.1,0-0.4,0-0.9,0c-5.7,0-15.7-0.6-17.8-5c-0.6-1.2-0.5-2.4,0-3.8
		c-6.2-0.3-23.6-1.9-31.9-11.9c-0.1-0.1-0.1-0.1-0.1-0.2c-0.1-0.2-2.3-4.4-0.8-8.8c0.8-2.3,2.5-4.2,5.1-5.7
		c-2.3-2.6-6.4-8.5-3.2-14.7c0.3-0.6,2.9-5.7,11.8-5.7c3.6,0,7.7,0.9,12.4,2.5c-0.2-1.8-0.2-4.4,1.2-6.7c1.6-2.6,4.4-4.2,8.4-4.7
		c0.1,0,2.2-0.4,6.4-0.4c3.9,0,8.3,0.3,12.9,0.9c0.1,0,2.5,0.4,6.7,0.4c12.4,0,36.9-3.1,63.3-23.5c-0.7-4-0.7-7.2-0.7-7.7
		c-0.3-3.6-0.6-7.8-0.8-11.4l-7.3-210.1c-0.1-0.7-0.7-5.6-0.4-13.1c0,0,0-0.1,0-0.1c0-0.5-0.7-8.2,2.3-16.4
		c2-9.2,5.7-19.7,12.2-30.4c0.4-0.6,39.3-56.6,73.1-86.3c0.4-0.4,2.6-2.5,4.8-2.5c1.8,0,3.9,1.2,4,6.8l1.9,73.2
		c0.7,0,1.6-0.1,2.7-0.1c5.6,0,9.6,0.8,12,2.4c6.3-7.8,47.2-58,70.7-78.4c0.2-0.2,2.3-2.1,4.6-2.1c1.9,0,4.2,1.3,4.5,7.2l2.8,98.1
		c0,0.4,0.3,2.9,0.8,7c0,0.2,0,0.4,0.1,0.6c0,0,0,0,0,0c1,10.3,2.7,29.6,3.1,50.3c0.2,0,0.4,0.1,0.5,0.3h17.6c0.1,0,0.2,0,0.4,0
		c1.3,0,4.7,0.3,7.4,3.3c0.1,0.1,0.2,0.2,0.3,0.3c0.2,0.2,0.3,0.4,0.4,0.6c0.2,0.3,0.4,0.6,0.6,0.9c0.1,0.1,0.1,0.2,0.2,0.4
		c0.3,0.4,0.5,0.9,0.7,1.4c0,0.1,0.1,0.2,0.1,0.3c0.2,0.4,0.3,0.8,0.4,1.2c0.1,0.2,0.1,0.4,0.2,0.5c0.1,0.4,0.2,0.8,0.3,1.2
		c0.1,0.3,0.1,0.6,0.2,0.9c0.1,0.3,0.1,0.6,0.1,0.9c0.1,0.5,0.1,1,0.2,1.5c0,0.2,0,0.3,0,0.5c0,0.6,0.1,1.3,0.1,2c0,0.1,0,0.2,0,0.2
		c0,0.7,0,1.5-0.1,2.3c0,0,0,0.2-0.1,0.5c-0.7,6.4-7.7,63.3-24.7,81.4c-0.3,0.6-1.1,1.9-3.4,3.2v5.8c1.8,0.5,6,1.4,11.4,1.4
		c10,0,23.9-3.2,33.2-18.3c-2.5-3-11.1-14.1-4.5-21.4c0.1-0.1,2.4-2.6,5.7-2.6c2.2,0,4.1,1,5.9,3.1l0.4-8.7
		c0.2-3.1,2.3-9.1,8.6-10.5c0,0,1-0.2,2.3-0.2c4.3,0,7.1,2.5,7.7,6.9c0.1,0.4,0.4,2.7,0,9.9c0,0,0.1,0,0.1,0c0.1,0,0.9-0.1,2.3-1.7
		c0,0,0.1-0.1,0.1-0.1l4.8-4.5c0.1-0.1,0.1-0.1,0.2-0.1c0.1-0.1,2.6-1.6,5.8-1.6c2.7,0,5.1,1.1,7.1,3.2c0.1,0.1,6.4,7.1-3.3,17.4
		c0,0.2-0.1,0.5,0.1,0.7c0.1,0.2,0.7,0.4,1.7,0.4c0.3-0.1,1.4-0.3,2.6-0.3c3.8,0,6.3,1.6,7.2,4.4
		C508.4,287.7,509.5,291.8,506.8,295.9z"/>
	<path fill="#2B2C41" d="M431.2,205.8c-0.5-0.6-1.1-1-1.6-1.3c0,0,0,0,0,0c-0.2-0.1-0.5-0.3-0.7-0.4c-0.1,0-0.1-0.1-0.2-0.1
		c-0.2-0.1-0.4-0.1-0.5-0.2c-0.1,0-0.2-0.1-0.4-0.1c-0.1,0-0.2-0.1-0.3-0.1c-0.1,0-0.3-0.1-0.4-0.1h0h-31.5
		c-0.6,0.2-3.5,1.3-4.8,4.2c-1.3,2.9-0.8,6.9,1.6,11.7c0.1,0.1,7.7,15.2,21.8,28.2c0.4,0.2,2.6,1.7,5.2,1.7c2.6,0,4.9-1.4,6.8-4.1
		c0-0.1,0.1-0.1,0.1-0.2c0-0.1,5.1-5.5,7.2-19c0.6-4.2,0.9-6.7,0.9-6.9c0,0,0,0,0,0v0c0-0.8,0.1-1.5,0.1-2.2c0,0,0,0,0-0.1
		c0-0.7,0-1.4-0.1-2c0,0,0-0.1,0-0.1c0-0.6-0.1-1.2-0.2-1.8c0,0,0-0.1,0-0.1c-0.1-0.6-0.2-1.2-0.3-1.7l0,0
		C433.4,208.9,432.5,207.1,431.2,205.8z"/>
	<path fill="#FFFFFF" d="M343.1,206.2c-2.4-43.2-24-45.4-28.4-45.4c-0.5,0-0.8,0-0.9,0c0,0-0.1,0-0.1,0
		c-38.8,1.1-39.2,50.6-39.2,51.1c1,17.1,6.5,29.4,16.3,36.5c7.8,5.6,16,6.2,19.2,6.2c0.8,0,1.3,0,1.3,0c0,0,0.1,0,0.1,0
		c9-0.1,16.2-3.1,21.5-8.9C345.4,231.8,343.1,206.4,343.1,206.2z M310.2,223.1c-5.7,0-10.3-7.9-10.3-17.7s4.6-17.7,10.3-17.7
		c5.7,0,10.3,7.9,10.3,17.7S315.8,223.1,310.2,223.1z M393.3,200.7l-18,0.1c0.4-1.5,0.6-3.2,0.6-5c0-7.1-3.5-12.9-7.9-12.9
		s-7.9,5.8-7.9,12.9c0,1.8,0.2,3.6,0.7,5.1l-8.6,0.1c-0.4-5.1-1.1-25.5,9.8-36.5c0.6-0.4,5.3-3.4,11.2-3.4c6.6,0,12.3,3.6,17.1,10.8
		C390.3,171.9,395,178.8,393.3,200.7z"/>
	<path fill="#87C9FB" d="M352.1,308.1c0.1,0,0.2,0,0.2,0c1.9,0,3.2-0.2,3.6-0.2h39.9c0,0,0.1,0,0.1,0c4.6-0.4,7.9-1.3,10.3-2.2v1.9
		c0,4.2-0.1,40.6,0,41.9c0,0.1,0,0.3,0.1,0.4c-0.2,10.1-0.8,39.3-2.7,57.2c0,0.1,0,0.1,0,0.2c0,0.2,0.2,17.9-12.4,26.6
		c9.4-28,4.9-65,4.9-65c-8.1-31.6-35.8-31.6-35.8-31.6c-30.1-1.8-52.6,1.8-52.6,1.8c-21,3.2-32.5,23.1-36.5,31.4
		c-0.6-23.8-1-46.4-1-46.9c0-0.7-0.6-1.3-1.3-1.2c-0.7,0-1.3,0.6-1.2,1.3c0,0.7,1,49.6,1.9,79.3c-11.6,2.1-30.1,1.5-35.3,1.2
		c-1.4-24.2-3.2-63.1-1.5-80.4c0.1-0.7-0.4-1.3-1.1-1.4c-0.7-0.1-1.3,0.4-1.4,1.1c-0.6,6.7-0.8,16.7-0.6,27.8c-2-2.2-6.7-6-13.7-4.4
		l-0.7-21.5c4-1,14.6-5.2,12.4-22.7c0,0-1.5-13.1-13.6-13l-0.4-12.7c15.1,2.3,53.5,4.7,85.7-21.5c4.8,1.5,8.9,1.8,10.8,1.8
		c0.8,0,1.3,0,1.4,0c9.7-0.1,17.5-3.4,23.3-9.7c13.2-14.6,10.9-40.3,10.8-41.3c-2.2-38.9-19.8-46.2-27.8-47.5
		c-2.2-4.8-5-9.4-8.7-13.8c4.2-1.1,7.2-1.4,7.3-1.4c0.1,0,0.2,0,0.2,0c8.5-2.5,10.9-7.3,11.5-10.5h20.8c0.1,0,0.2,0,0.3-0.1
		c1.5,0.9,2.8,1.2,2.9,1.3c0,0,0.1,0,0.1,0c7.9,1.4,14.5,4.4,18.7,6.5c-3.4,4.9-6.3,11.6-8,20.5c-1.5,0.8-2.5,1.4-2.6,1.5
		c-0.1,0-0.1,0.1-0.2,0.1c-11.7,11.7-11,32.7-10.6,38.4l-1.6,0c-0.7,0-1.3,0.6-1.3,1.3c0,0.7,0.6,1.3,1.3,1.3c0,0,0,0,0,0l2.8,0
		c0,0,0.1,0,0.1,0h20.6c-4,2.4-10.4,8.3-15,22.9c0,0-4.1,20.7-25.3,29.7l-20.8,7.6c0,0-25,7.3-22.1,30.3c0,0,3,15.8,34.2,16.4
		C322.5,310.4,333.6,311.1,352.1,308.1z M232.6,447.5c-2.2,0.2-5.6,0.2-8.4-1.6c-2.3-1.4-3.7-3.7-4.3-6.7c-0.1-0.2-1.2-5.4,3.5-11
		c-3.4-3.1-5.2-7.6-6.3-11.7c-18.4,14-36,19.8-49.2,22.1c-3.2,12.8-6.7,39.6,18.1,48.3c25.6-11.4,43.6-27.2,46.9-30.2
		C231.8,454.1,231.6,451,232.6,447.5z M296.4,505.2v-58.4h-18.9c-0.1,2.2-0.5,4.6-1.8,6.9c-1.9,3.4-5.2,5.7-9.7,6.8
		c-0.1,0-0.2,0-0.3,0c-0.2,0-5.3,0.1-8.3-3.1c-0.8-0.8-1.4-1.8-1.8-2.9c-1.6,2.6-4,5.2-7.2,6.7l0.1,42.6
		C257.2,504.7,276.2,506.3,296.4,505.2z M379.6,504.5l-1.2-63.5c-4.6,1.2-19.1,4.3-49.1,5.7l1.8,60.7
		C341.8,508,363.7,508.8,379.6,504.5z M218.1,401.6c0.4,5.6,1,11,1.1,12.3c0.8,4.3,2.5,9.4,6,12.6c0.3-0.2,0.5-0.5,0.8-0.7
		c0.1-0.1,2.8-2.2,7-2.1c-0.3-3.7-0.9-14-1.6-26.9C227.5,402.2,220.6,401.9,218.1,401.6z M446.2,305.4c-8.6,6.9-18.3,8.7-26,8.7
		c-5.1,0-9.3-0.8-11.4-1.3c0,9.9,0,24.9,0,32.2c2.8,0.2,5.6,0.3,8.3,0.3c23.7,0,39.3-7.8,49-15.9C456.3,322,449.6,311.5,446.2,305.4
		z"/>
	<path fill="#EFCE70" d="M430.7,243c-4.1,21.8-11.7,51.8-23.8,59.5c-0.1,0.1-0.2,0.1-0.3,0.2c-2.1,1-5.5,2.1-10.8,2.6h-40
		c-0.1,0-0.2,0-0.2,0c-0.3,0.1-25.9,4.7-37.1-29.5c2.3-0.3,4.8-0.3,7.6,0.1c0.7,0.1,1.3-0.3,1.5-1c0.1-0.7-0.3-1.3-1-1.5
		c-3.4-0.6-6.6-0.5-9.4,0c-0.2,0-0.4,0-0.6,0c-0.1,0-0.3,0.1-0.4,0.2c-11.2,2.5-17.2,11.8-17.3,11.9c-0.4,0.6-0.2,1.4,0.4,1.7
		c0.2,0.1,0.4,0.2,0.7,0.2c0.4,0,0.8-0.2,1.1-0.6c0.1-0.1,5.3-8.2,15-10.7c5.2,16,13.4,24,21,28c-39.5,5.3-41.7-13.3-41.7-13.3
		c-1.5-19.6,26.5-25.4,26.5-25.4l28.1-9.6c12.1-4.6,15-13.2,15-13.2l7.8-17.4c6.3-13.6,11.2-19.5,14-21.9h4
		c-0.9,0.8-1.7,1.8-2.3,3.1c-1.7,3.7-1.1,8.3,1.7,13.9c0.1,0.2,7.9,15.6,22.4,29c0,0,0.1,0.1,0.1,0.1c0.1,0.1,3,2.2,6.8,2.2h0
		c2.4,0,5.9-0.9,8.8-5.1C428.5,246.3,429.5,245.2,430.7,243z M287.8,73.7c-19.5,22.3-38.8,54.2-43.1,61.6l31.1-1
		c2.4-3.4,8.6-11.1,18.6-15.4l-1.1-42.6C292.4,67.6,287.8,73.7,287.8,73.7z M385.1,74.9c-13.5,13.2-24.4,27-32.1,37.7
		c2.5-1.2,5.8-2.1,9.9-2.1c1.8,0,3.6,0.2,5.6,0.5c0.2,0,15.9,2.2,24,14l-1.6-50.1C389.8,69.9,385.1,74.9,385.1,74.9z M346.2,130.2
		c-0.4-0.4-0.7-0.9-1-1.5c-0.5-1-0.9-2.1-0.9-3.2c-1.3,2-2.3,3.6-2.9,4.7L346.2,130.2L346.2,130.2z"/>
	<path fill="#404066" d="M213.6,276.8l-3.2-92.5c0-0.1,0-0.1,0-0.2c0-0.2-1.8-11.9,1.7-28.3c1.1-3.2,2.8-6.4,5.4-9.3
		c5.2-5.8,13-8.7,23.1-8.8l33.4-1.1c-5,8.3,0.7,14.6,0.8,14.7c0,0,0.1,0.1,0.1,0.1c2.8,2.4,5.9,3.6,9.3,3.6c4.4,0,7.7-2.1,7.9-2.2
		c0,0,0.1-0.1,0.1-0.1c5.2-4.4,11.9-6.9,16.9-8.2c3.7,4.4,6.5,9.1,8.7,13.8c-1.3-0.2-2.4-0.3-3.1-0.3c-0.6,0-1,0-1.1,0
		c-17.1,0.5-29.7,10-36.5,27.5c-5.1,13-5.1,25.7-5.1,26.3c1.7,29.7,16.5,39.9,27.3,43.3C267.1,281.6,228.7,279.1,213.6,276.8z
		 M168,438.6c-5.8,1-10.8,1.3-14.7,1.3h0c-4.4,0-7-0.4-7.1-0.4c-4.5-0.6-8.7-0.9-12.5-0.9c-4,0-6,0.3-6,0.3
		c-3.3,0.5-5.5,1.7-6.6,3.6c-1.3,2.2-1,4.9-0.7,6.2l3.4,0.7c0.7,0.1,1.1,0.8,1,1.5c-0.1,0.6-0.7,1-1.2,1c-0.1,0-0.2,0-0.3,0
		l-3.5-0.7c-0.3,0.1-0.6,0.1-0.8,0c-5.2-2.1-9.8-3.2-13.6-3.2c-7.4,0-9.4,4.1-9.5,4.2c-2.4,4.6,0.6,9.3,2.6,11.6
		c0.4,0.4,3.8,3.8,10.6,5.5c0.7,0.2,1.1,0.8,0.9,1.5c-0.1,0.6-0.7,1-1.2,1c-0.1,0-0.2,0-0.3,0c-4.4-1.1-7.6-2.8-9.5-4.2
		c-2.5,1.2-4.2,2.8-4.9,4.8c-1.1,3,0.3,6.1,0.6,6.6c9.2,10.8,31,11,32,11l0.1,0c0.5,0,0.9,0.3,1.1,0.7c0.2,0.4,0.2,1-0.1,1.3
		c-1,1.3-1.4,2.3-1,3.1c1.2,2.5,8.7,3.6,15.5,3.6c0.5,0,0.7,0,0.7,0c15.7-1.4,30.3-6,43.1-11.6C161.3,478.1,164.8,451.4,168,438.6z
		 M373.1,158.5c7.5,0,13.9,4,19.2,11.9c0.2,0.3,5.2,7.4,3.5,30.3l8.8-0.1c-0.4-21.1-2.2-40.7-3.2-50.7c-0.8-7.3-3.6-10-5.1-10.9
		c-0.6,2.2-2.1,4.6-5.4,6.7c-0.1,0.1-2.1,1.2-5.3,1.2c-3.4,0-6.7-1.2-10-3.5c0,0-1.7-1.2-4.6-2.7c-3.4,4.9-6.3,11.6-8,20.5
		C365.2,159.8,368.8,158.5,373.1,158.5z M216,346.8l1.7,47.8c0.1,2.2,0.2,4.6,0.4,7c2.5,0.3,9.3,0.6,13.3-4.8
		c-0.7-13.9-1.5-30.8-1.7-45.6C227.7,349,223,345.2,216,346.8z M227.7,302.6c0,0-1.5-13.1-13.6-13l1.2,35.7
		C219.3,324.3,229.9,320,227.7,302.6z M301.5,42.5c-0.1-2.7-0.6-4.3-1.5-4.3c-1,0-2.5,1.2-3.1,1.8c0,0-0.1,0.1-0.1,0.1
		c-33.6,29.5-72.3,85.2-72.7,85.8c-4.1,6.9-7.1,13.7-9.2,20c0.3-0.3,0.5-0.6,0.8-0.9c5.7-6.3,14.1-9.6,24.9-9.6l4-0.1
		c4.4-7.4,23.7-39.3,43.1-61.6c0,0,4.6-6.1,5.5,2.5l1.1,42.6c2.7-1.2,5.8-2.1,9.1-2.6L301.5,42.5z M397.9,44.8
		c-0.1-1.4-0.4-4.8-2-4.8c-1,0-2.4,1-2.9,1.5c-23.5,20.4-64.4,70.7-70.5,78.2c2.7,2.2,5.6,5.5,5.8,10c0,0.1,0,0.3,0,0.5h13.1
		c0.6-1.1,1.6-2.6,2.9-4.7c-0.1-1.2,0.1-2.4,0.5-3.7c0,0,1.6-5.9,8.3-9.2c7.7-10.7,18.7-24.5,32.1-37.7c0,0,4.6-5.1,5.7,0l1.6,50.1
		c1.5,2.2,2.8,4.8,3.6,7.7c0.1,0.4,0.6,1.7,0.6,3.6c1,0.4,2.5,1.3,3.9,3.3L397.9,44.8z"/>
	<ellipse fill="#9494AC" cx="414.8" cy="208.7" rx="14.2" ry="4.3"/>
	<path fill="#D2EBFF" d="M393.6,133.4c0,0.1,0,0.1,0.1,0.2c0.1,0.2,2.4,5.8-4.1,9.8c0,0-1.5,0.8-4,0.8c-2.8,0-5.7-1-8.6-3.1
		c-0.4-0.3-10.3-7.1-24.3-9.7c-0.4-0.1-3.9-1.3-5.4-4c-0.8-1.4-0.9-3.1-0.3-5c0-0.1,2.6-9.4,15.7-9.4c1.6,0,3.4,0.1,5.2,0.4
		C368.3,113.5,388.8,116.3,393.6,133.4z M316.7,119c-2.5-0.5-5.1-0.7-7.5-0.7c-21.3,0-32.2,18.7-32.3,18.9c0,0,0,0.1-0.1,0.1
		c-4.8,6.8-0.7,11.9-0.1,12.5c2.3,1.9,4.8,2.9,7.5,2.9c3.4,0,6-1.5,6.4-1.8c9.7-8.2,23.8-10,25.4-10.1c11.1-3.2,9.8-10.7,9.8-10.7
		c0-0.1,0-0.1,0-0.2C325.5,123.3,317.8,119.5,316.7,119z M302.3,536.1c0,0-0.1,0-0.1,0c-5.2-1.6-5.8-7.3-5.8-7.6c0,0,0-0.1,0-0.1
		v-23.2c-20.2,1.1-39.2-0.5-47.9-1.4l0.1,47.5c0.1,7.8,4.7,9,4.9,9c7.1,1.5,15.5,2.3,25,2.6c0.5-2.9,1.5-11.9-4.5-18.1
		c-0.5-0.5-0.5-1.3,0-1.8c0.5-0.5,1.3-0.5,1.8,0c6.6,6.8,5.9,16.2,5.3,19.9c0.7,0,1.5,0,2.2,0c6.8,0,13.2-0.3,18.4-0.7
		c0.2-3.5,0.6-15-5.4-18.5c-0.6-0.4-0.8-1.1-0.4-1.7s1.1-0.8,1.7-0.4c7,4.2,6.9,16.2,6.6,20.5c4.8-0.4,8.3-0.8,9.9-1
		C316.1,539.5,302.9,536.2,302.3,536.1z M381,533.5c-0.5-0.2-0.8-0.6-0.8-1.2l-0.5-27.9c-15.9,4.3-37.8,3.6-48.5,2.9l1.5,51.3
		c7.4,2.3,17.7,3.5,30.5,3.6c0.6-5.3,0.7-16.6-4.4-19.8c-0.6-0.4-0.8-1.2-0.4-1.7c0.4-0.6,1.2-0.8,1.7-0.4c6.8,4.2,6,17.5,5.6,22
		c6.7,0,13.1-0.3,18.2-0.6c0.2-3.9,0.2-17.2-6.9-20.6c-0.6-0.3-0.9-1.1-0.6-1.7c0.3-0.6,1.1-0.9,1.7-0.6c8.4,4,8.6,18,8.4,22.7
		c4.2-0.3,7.4-0.6,8.8-0.8C400.4,540.8,381.8,533.8,381,533.5z M396.2,368.8c-8.1-31.6-35.8-31.6-35.8-31.6
		c-30.1-1.8-52.6,1.8-52.6,1.8c-21,3.2-32.5,23.1-36.5,31.4c0.6,22.6,1.2,46.3,1.8,52.8c0,0.1,0.9,10.8,3.6,17c0,0,0,0.1,0,0.1
		c0,0.1,0.5,1.7,0.7,3.9h20.3H328c36.9-1.7,51.1-6,51.3-6.1c0.1,0,0.1,0,0.2,0c0,0,0,0,0,0c4.9-0.6,8.7-2.2,11.8-4.4
		C400.7,405.7,396.2,368.8,396.2,368.8z M234.4,404c0.7,12.2,1.3,20.7,1.3,20.9c0,0.4-0.1,0.8-0.4,1c-0.3,0.3-0.7,0.4-1,0.3
		c-4-0.5-6.5,1.4-6.6,1.4c-6.4,5.3-5.3,10.7-5.2,10.9c0.5,2.4,1.5,4.1,3.2,5.1c3.5,2.2,8.5,0.9,8.5,0.9c0.5-0.1,0.9,0,1.3,0.4
		s0.4,0.8,0.2,1.3c-1.4,3.8-1.5,7-0.2,9.3c1.3,2.4,3.6,3.3,4.5,3.6c0.2,0.1,0.4,0.1,0.6,0.2c0.1,0,0.2,0,0.3,0.1
		c0.7,0.1,1.4,0.2,2.2,0.2c1.5,0,2.7-0.3,3.3-0.4c6.1-2,8.7-9.3,8.9-9.7c0.2-0.6,0.8-1,1.5-0.8c0.6,0.1,1,0.7,1,1.3
		c-0.2,2.4,0.3,4.2,1.6,5.5c2.1,2.2,5.6,2.3,6.3,2.3c3.8-1,6.5-2.9,8-5.6c2.6-4.8,1-10.7,0.8-11.3c-2.8-6.6-3.7-17.3-3.7-17.8
		c-0.3-3.3-0.6-10.9-0.9-20.6C258.1,405,239.5,404.3,234.4,404z M295.3,291c-1.5-19.6,26.5-25.4,26.5-25.4l28.1-9.6
		c12.1-4.6,15-13.2,15-13.2l7.8-17.4c6.3-13.6,11.2-19.5,14-21.9h-15.2c-4,2.4-10.4,8.3-15,22.9c0,0-4.1,20.7-25.3,29.7l-20.8,7.6
		c0,0-25,7.3-22.1,30.3c0,0,3,15.8,34.2,16.4c0,0,11,0.7,29.5-2.3c-3.6,0-9.1-0.7-15-3.8C297.6,309.6,295.3,291,295.3,291z
		 M504.7,294.5c-2,3-6.1,5-12.1,5.8c-0.4,0.1-0.8,0.3-1,0.7c0,0.1-4,7.6-10.1,9.4c-0.4,0.1-0.7,0.4-0.8,0.8
		c-0.1,0.2-3.9,9.5-14.6,18.4c-9.8-7.4-16.6-17.9-19.9-24c3.6-2.9,7-6.7,9.9-11.6c0.3-0.5,0.2-1.1-0.2-1.5
		c-0.1-0.1-11.1-12.2-5.1-18.7c0,0,1.7-1.8,3.8-1.8c2.1,0,4.1,1.7,5.9,5c0.3,0.5,0.8,0.8,1.4,0.6c0.6-0.1,1-0.6,1-1.2l0.5-12.5
		c0-0.3,0.6-6.9,6.6-8.1c0,0,0.7-0.2,1.7-0.2c3,0,4.8,1.6,5.2,4.7c0,0,0,0.1,0,0.1c0,0.1,0.4,2.1,0,9.8c0,0.2,0,0.4,0.1,0.6
		c0.3,0.6,1.1,1.6,2.5,1.6c1.3,0,2.7-0.8,4.2-2.5l4.7-4.4c0.4-0.2,2.2-1.2,4.3-1.2c2,0,3.8,0.8,5.2,2.4c0.2,0.2,4.8,5.5-3.5,14.2
		c-0.1,0.1-0.2,0.3-0.3,0.4c-0.1,0.2-0.7,1.8,0.3,3.2c0.7,1,1.9,1.5,3.6,1.5c0.1,0,0.3,0,0.5,0c0.1,0,0.1,0,0.2,0c0,0,1-0.2,2.2-0.2
		c2.6,0,4.3,0.9,4.8,2.6C506,288.3,506.8,291.4,504.7,294.5z M475.1,286c-0.2-0.7-0.9-1.1-1.5-0.9c-0.7,0.2-1.1,0.9-0.9,1.5
		c0.1,0.4,2.3,9.1-4.9,11.8c-0.7,0.2-1,1-0.7,1.6c0.2,0.5,0.7,0.8,1.2,0.8c0.1,0,0.3,0,0.4-0.1C476.1,298,476.1,289.9,475.1,286z"/>
</g>
</svg>
